<svg width="190" height="93" viewBox="0 0 190 93" fill="none" xmlns="http://www.w3.org/2000/svg">
<g clip-path="url(#clip0_144_372)">
<path d="M178.272 35.1979V46.6507H188.362V51.5159H178.272V62.9688H173.555V51.5159H163.466V46.6507H173.555V35.1979H178.272Z" fill="#FF7F50" stroke="#FF7F50" stroke-width="5"/>
<path d="M41.0714 25.2443L24.5296 68.4583H17.9255L1.38367 25.2443H7.48463L21.259 62.5063L35.0333 25.2443H41.0714ZM50.3034 28.9643C49.2132 28.9643 48.2907 28.5923 47.536 27.8483C46.7812 27.1043 46.4038 26.195 46.4038 25.1203C46.4038 24.0457 46.7812 23.1363 47.536 22.3923C48.2907 21.6483 49.2132 21.2763 50.3034 21.2763C51.3517 21.2763 52.2323 21.6483 52.9451 22.3923C53.6998 23.1363 54.0772 24.0457 54.0772 25.1203C54.0772 26.195 53.6998 27.1043 52.9451 27.8483C52.2323 28.5923 51.3517 28.9643 50.3034 28.9643ZM53.0709 34.4823V68.4583H47.3473V34.4823H53.0709ZM60.6873 51.3463C60.6873 47.8743 61.4001 44.8363 62.8257 42.2323C64.2514 39.587 66.2012 37.541 68.6751 36.0943C71.191 34.6477 73.9794 33.9243 77.0404 33.9243C80.0594 33.9243 82.6801 34.565 84.9024 35.8463C87.1248 37.1277 88.781 38.7397 89.8713 40.6823V34.4823H95.6577V68.4583H89.8713V62.1343C88.7391 64.1183 87.0409 65.7717 84.7766 67.0943C82.5543 68.3757 79.9546 69.0163 76.9775 69.0163C73.9165 69.0163 71.149 68.2723 68.6751 66.7843C66.2012 65.2963 64.2514 63.209 62.8257 60.5223C61.4001 57.8357 60.6873 54.777 60.6873 51.3463ZM89.8713 51.4083C89.8713 48.8457 89.3471 46.6137 88.2988 44.7123C87.2506 42.811 85.8249 41.3643 84.0219 40.3723C82.2608 39.339 80.311 38.8223 78.1725 38.8223C76.034 38.8223 74.0842 39.3183 72.3231 40.3103C70.562 41.3023 69.1573 42.749 68.109 44.6503C67.0608 46.5517 66.5366 48.7837 66.5366 51.3463C66.5366 53.9503 67.0608 56.2237 68.109 58.1663C69.1573 60.0677 70.562 61.535 72.3231 62.5683C74.0842 63.5603 76.034 64.0563 78.1725 64.0563C80.311 64.0563 82.2608 63.5603 84.0219 62.5683C85.8249 61.535 87.2506 60.0677 88.2988 58.1663C89.3471 56.2237 89.8713 53.971 89.8713 51.4083ZM108.412 28.9643C107.322 28.9643 106.399 28.5923 105.645 27.8483C104.932 27.1043 104.575 26.195 104.575 25.1203C104.575 24.0457 104.932 23.1363 105.645 22.3923C106.399 21.6483 107.322 21.2763 108.412 21.2763C109.502 21.2763 110.404 21.6483 111.117 22.3923C111.871 23.1363 112.249 24.0457 112.249 25.1203C112.249 26.195 111.871 27.1043 111.117 27.8483C110.404 28.5923 109.502 28.9643 108.412 28.9643ZM111.242 75.8363C111.242 78.8537 110.467 81.065 108.915 82.4703C107.364 83.8757 105.099 84.5783 102.122 84.5783H98.7888V79.8043H101.179C102.772 79.8043 103.883 79.4943 104.512 78.8743C105.183 78.2543 105.519 77.2003 105.519 75.7123V34.4823H111.242V75.8363ZM118.793 51.3463C118.793 47.8743 119.506 44.8363 120.932 42.2323C122.357 39.587 124.307 37.541 126.781 36.0943C129.297 34.6477 132.085 33.9243 135.146 33.9243C138.165 33.9243 140.786 34.565 143.008 35.8463C145.231 37.1277 146.887 38.7397 147.977 40.6823V34.4823H153.764V68.4583H147.977V62.1343C146.845 64.1183 145.147 65.7717 142.883 67.0943C140.66 68.3757 138.06 69.0163 135.083 69.0163C132.022 69.0163 129.255 68.2723 126.781 66.7843C124.307 65.2963 122.357 63.209 120.932 60.5223C119.506 57.8357 118.793 54.777 118.793 51.3463ZM147.977 51.4083C147.977 48.8457 147.453 46.6137 146.405 44.7123C145.356 42.811 143.931 41.3643 142.128 40.3723C140.367 39.339 138.417 38.8223 136.278 38.8223C134.14 38.8223 132.19 39.3183 130.429 40.3103C128.668 41.3023 127.263 42.749 126.215 44.6503C125.167 46.5517 124.643 48.7837 124.643 51.3463C124.643 53.9503 125.167 56.2237 126.215 58.1663C127.263 60.0677 128.668 61.535 130.429 62.5683C132.19 63.5603 134.14 64.0563 136.278 64.0563C138.417 64.0563 140.367 63.5603 142.128 62.5683C143.931 61.535 145.356 60.0677 146.405 58.1663C147.453 56.2237 147.977 53.971 147.977 51.4083Z" fill="white"/>
<path d="M138.216 0C136.881 0 135.539 0 134.874 0.661346L129.526 6.59493H108.783L107.448 8.57279L122.165 13.1899L118.152 18.4621H112.132L110.126 20.44L114.139 21.7565V23.7344C114.183 24.4452 114.81 25.0509 115.474 25.0509H117.48L118.816 29.0066L120.822 27.0288V21.0952L126.171 17.1394L130.855 31.6458L132.861 30.3293V9.88932L138.881 4.61708C139.552 3.95573 139.552 2.63921 139.552 1.31652C139.552 0.661346 138.881 0 138.216 0Z" fill="url(#paint0_linear_144_372)"/>
</g>
<defs>
<linearGradient id="paint0_linear_144_372" x1="123.5" y1="0" x2="123.5" y2="31.6458" gradientUnits="userSpaceOnUse">
<stop offset="0.168269" stop-color="#319F43"/>
<stop offset="0.584135" stop-color="#216C2E"/>
<stop offset="0.792067" stop-color="#195323"/>
<stop offset="1" stop-color="#123918" stop-opacity="0.42"/>
</linearGradient>
<clipPath id="clip0_144_372">
<rect width="190" height="93" fill="white"/>
</clipPath>
</defs>
</svg>
